<?xml version="1.0" encoding="utf-8" ?>
<svg baseProfile="tiny" height="502" version="1.2" width="432" xmlns="http://www.w3.org/2000/svg" xmlns:ev="http://www.w3.org/2001/xml-events" xmlns:xlink="http://www.w3.org/1999/xlink"><defs /><line stroke="black" x1="126.9483" x2="114.9223" y1="47.0" y2="59.026" /><line stroke="black" x1="127.7996" x2="116.0474" y1="48.27" y2="60.0222" /><line stroke="black" x1="112.3007" x2="111.7244" y1="63.7689" y2="64.3452" /><line stroke="black" x1="148.0168" x2="104.1444" y1="30.1741" y2="74.0466" /><line stroke="black" x1="146.6427" x2="106.0359" y1="33.6695" y2="74.2764" /><line stroke="black" x1="153.6536" x2="102.6729" y1="28.7799" y2="79.7606" /><line stroke="black" x1="101.434" x2="101.4327" y1="80.9996" y2="81.0008" /><line stroke="black" x1="156.4137" x2="101.9825" y1="28.1412" y2="82.5724" /><line stroke="black" x1="164.5111" x2="92.1432" y1="22.1651" y2="94.533" /><line stroke="black" x1="164.6342" x2="94.074" y1="24.1633" y2="94.7235" /><line stroke="black" x1="169.9852" x2="92.819" y1="20.9337" y2="98.0998" /><line stroke="black" x1="170.9062" x2="93.9311" y1="22.134" y2="99.109" /><line stroke="black" x1="177.0193" x2="88.7906" y1="18.1422" y2="106.3709" /><line stroke="black" x1="177.1634" x2="91.2696" y1="20.1194" y2="106.0132" /><line stroke="black" x1="182.4632" x2="90.8325" y1="16.9409" y2="108.5716" /><line stroke="black" x1="183.2667" x2="91.9759" y1="18.2587" y2="109.5495" /><line stroke="black" x1="189.4676" x2="88.1907" y1="14.1792" y2="115.4561" /><line stroke="black" x1="189.4767" x2="90.2533" y1="16.2914" y2="115.5148" /><line stroke="black" x1="194.9261" x2="88.8757" y1="12.9633" y2="119.0137" /><line stroke="black" x1="195.7107" x2="89.9159" y1="14.3" y2="120.0948" /><line stroke="black" x1="199.9609" x2="84.3446" y1="12.1712" y2="127.7874" /><line stroke="black" x1="200.0341" x2="88.2466" y1="14.2193" y2="126.0067" /><line stroke="black" x1="203.4076" x2="85.4015" y1="12.967" y2="130.9732" /><line stroke="black" x1="204.1861" x2="87.0658" y1="14.3099" y2="131.4302" /><line stroke="black" x1="208.4147" x2="84.2382" y1="12.2026" y2="136.3791" /><line stroke="black" x1="208.3353" x2="86.443" y1="14.4033" y2="136.2957" /><line stroke="black" x1="210.4978" x2="85.5148" y1="14.3621" y2="139.3451" /><line stroke="black" x1="210.6508" x2="87.2753" y1="16.3305" y2="139.706" /><line stroke="black" x1="214.9214" x2="84.2655" y1="14.1812" y2="144.8371" /><line stroke="black" x1="214.9536" x2="86.5602" y1="16.2703" y2="144.6637" /><line stroke="black" x1="218.4287" x2="83.7903" y1="14.9166" y2="149.5549" /><line stroke="black" x1="219.288" x2="115.9644" y1="16.1786" y2="119.5022" /><line stroke="black" x1="110.1854" x2="85.389" y1="125.2812" y2="150.0775" /><line stroke="black" x1="223.4347" x2="80.8647" y1="14.1532" y2="156.7232" /><line stroke="black" x1="208.9305" x2="119.7797" y1="30.7787" y2="119.9295" /><line stroke="black" x1="108.7925" x2="85.6639" y1="130.9167" y2="154.0453" /><line stroke="black" x1="223.525" x2="211.595" y1="16.1842" y2="28.1142" /><line stroke="black" x1="226.0991" x2="81.6256" y1="15.7314" y2="160.2049" /><line stroke="black" x1="108.4595" x2="84.7968" y1="135.4924" y2="159.1551" /><line stroke="black" x1="226.3063" x2="214.3832" y1="17.6456" y2="29.5686" /><line stroke="black" x1="213.1388" x2="126.8173" y1="30.813" y2="117.1346" /><line stroke="black" x1="125.6445" x2="123.8373" y1="118.3074" y2="120.1145" /><line stroke="black" x1="229.9029" x2="82.1462" y1="16.1703" y2="163.927" /><line stroke="black" x1="109.2471" x2="84.1461" y1="138.9474" y2="164.0484" /><line stroke="black" x1="229.9876" x2="130.6383" y1="18.2068" y2="117.5561" /><line stroke="black" x1="233.3962" x2="83.05" y1="16.9196" y2="167.2658" /><line stroke="black" x1="109.6743" x2="84.347" y1="142.7628" y2="168.0901" /><line stroke="black" x1="234.2808" x2="132.1721" y1="18.1563" y2="120.265" /><line stroke="black" x1="238.3991" x2="82.198" y1="16.1593" y2="172.3604" /><line stroke="black" x1="108.988" x2="84.3341" y1="147.6918" y2="172.3456" /><line stroke="black" x1="238.5131" x2="136.7127" y1="18.1667" y2="119.9671" /><line stroke="black" x1="241.8641" x2="82.9336" y1="16.9369" y2="175.8675" /><line stroke="black" x1="110.1057" x2="84.2793" y1="150.8167" y2="176.6431" /><line stroke="black" x1="242.7155" x2="140.8698" y1="18.2069" y2="120.0526" /><line stroke="black" x1="246.8726" x2="82.2212" y1="16.1712" y2="180.8226" /><line stroke="black" x1="246.945" x2="147.2209" y1="18.22" y2="117.9441" /><line stroke="black" x1="110.3264" x2="84.3814" y1="154.8387" y2="180.7837" /><line stroke="black" x1="250.3941" x2="83.3824" y1="16.8922" y2="183.9039" /><line stroke="black" x1="251.3148" x2="161.8963" y1="18.0929" y2="107.5113" /><line stroke="black" x1="110.6634" x2="84.9554" y1="158.7442" y2="184.4522" /><line stroke="black" x1="254.5884" x2="84.0031" y1="16.9406" y2="187.5259" /><line stroke="black" x1="112.1483" x2="86.0123" y1="161.502" y2="187.638" /><line stroke="black" x1="254.2224" x2="165.4624" y1="19.4279" y2="108.1879" /><line stroke="black" x1="256.917" x2="84.9216" y1="18.8546" y2="190.8501" /><line stroke="black" x1="113.425" x2="86.241" y1="164.468" y2="191.652" /><line stroke="black" x1="257.8344" x2="168.754" y1="20.0586" y2="109.1389" /><line stroke="black" x1="261.875" x2="84.5143" y1="18.1393" y2="195.5" /><line stroke="black" x1="114.442" x2="87.1979" y1="167.6936" y2="194.9377" /><line stroke="black" x1="262.0325" x2="171.5417" y1="20.1031" y2="110.5939" /><line stroke="black" x1="164.0" x2="160.9427" y1="120.2569" y2="123.3142" /><line stroke="black" x1="265.263" x2="164.7708" y1="18.994" y2="119.4861" /><line stroke="black" x1="155.5" x2="85.5773" y1="128.7569" y2="198.6796" /><line stroke="black" x1="115.4201" x2="87.3705" y1="170.9582" y2="199.0078" /><line stroke="black" x1="265.488" x2="193.1447" y1="20.8903" y2="93.2335" /><line stroke="black" x1="191.3356" x2="173.7093" y1="95.0427" y2="112.6689" /><line stroke="black" x1="268.343" x2="82.2601" y1="20.1565" y2="206.2395" /><line stroke="black" x1="268.4663" x2="197.861" y1="22.1545" y2="92.7599" /><line stroke="black" x1="117.8204" x2="87.738" y1="172.8005" y2="202.8829" /><line stroke="black" x1="193.6954" x2="175.9353" y1="96.9255" y2="114.6856" /><line stroke="black" x1="271.5505" x2="172.6211" y1="21.1917" y2="120.1211" /><line stroke="black" x1="154.1289" x2="83.5025" y1="138.6133" y2="209.2397" /><line stroke="black" x1="120.1174" x2="85.7716" y1="174.7461" y2="209.092" /><line stroke="black" x1="271.7363" x2="199.0356" y1="23.1273" y2="95.828" /><line stroke="black" x1="197.3635" x2="178.0398" y1="97.5" y2="116.8237" /><line stroke="black" x1="274.8365" x2="84.3066" y1="22.1484" y2="212.6782" /><line stroke="black" x1="274.9692" x2="180.7537" y1="24.137" y2="118.3525" /><line stroke="black" x1="120.016" x2="89.7967" y1="179.0902" y2="209.3094" /><line stroke="black" x1="278.2661" x2="177.7241" y1="22.9614" y2="123.5034" /><line stroke="black" x1="153.5" x2="85.4312" y1="147.7275" y2="215.7963" /><line stroke="black" x1="117.5193" x2="92.1124" y1="185.8295" y2="211.2364" /><line stroke="black" x1="278.9427" x2="183.3862" y1="24.4061" y2="119.9626" /><line stroke="black" x1="281.5085" x2="84.3711" y1="23.9616" y2="221.099" /><line stroke="black" x1="281.4098" x2="186.5963" y1="26.1817" y2="120.9951" /><line stroke="black" x1="115.257" x2="93.1956" y1="192.3345" y2="214.3959" /><line stroke="black" x1="153.25" x2="86.9994" y1="156.4628" y2="222.7134" /><line stroke="black" x1="284.7723" x2="185.8134" y1="24.9405" y2="123.8994" /><line stroke="black" x1="285.6257" x2="189.7569" y1="26.2084" y2="122.0772" /><line stroke="black" x1="115.5" x2="94.7436" y1="196.3341" y2="217.0905" /><line stroke="black" x1="289.7873" x2="86.3535" y1="24.1681" y2="227.6019" /><line stroke="black" x1="115.5" x2="98.3896" y1="200.5767" y2="217.6871" /><line stroke="black" x1="289.8937" x2="192.9041" y1="26.183" y2="123.1726" /><line stroke="black" x1="292.2364" x2="192.5112" y1="25.9617" y2="125.6869" /><line stroke="black" x1="155.0" x2="88.5213" y1="163.1981" y2="229.6767" /><line stroke="black" x1="292.4659" x2="196.1841" y1="27.8535" y2="124.1352" /><line stroke="black" x1="114.5328" x2="99.9507" y1="205.7866" y2="220.3686" /><line stroke="black" x1="296.2449" x2="88.7258" y1="26.1958" y2="233.7149" /><line stroke="black" x1="148.4253" x2="140.0" y1="176.1367" y2="184.562" /><line stroke="black" x1="114.1" x2="101.7854" y1="210.462" y2="222.7767" /><line stroke="black" x1="296.2511" x2="199.3448" y1="28.3109" y2="125.2172" /><line stroke="black" x1="298.4444" x2="198.8197" y1="28.239" y2="127.8636" /><line stroke="black" x1="159.1222" x2="91.4208" y1="167.5611" y2="235.2625" /><line stroke="black" x1="113.5" x2="103.4824" y1="215.3047" y2="225.3222" /><line stroke="black" x1="153.7613" x2="140.7559" y1="175.0433" y2="188.0488" /><line stroke="black" x1="298.742" x2="203.2601" y1="30.0627" y2="125.5446" /><line stroke="black" x1="301.1848" x2="91.9389" y1="29.7411" y2="238.9871" /><line stroke="black" x1="240.4922" x2="207.2592" y1="92.5551" y2="125.7881" /><line stroke="black" x1="156.0194" x2="151.5473" y1="177.0278" y2="181.5" /><line stroke="black" x1="300.9376" x2="241.5613" y1="32.1097" y2="91.486" /><line stroke="black" x1="113.0" x2="105.1598" y1="220.0473" y2="227.8875" /><line stroke="black" x1="164.603" x2="93.7384" y1="170.5657" y2="241.4302" /><line stroke="black" x1="303.7124" x2="206.4836" y1="31.4563" y2="128.685" /><line stroke="black" x1="160.0832" x2="156.9547" y1="177.2068" y2="180.3352" /><line stroke="black" x1="303.889" x2="211.6325" y1="33.4009" y2="125.6574" /><line stroke="black" x1="112.9567" x2="109.0942" y1="224.3332" y2="228.1957" /><line stroke="black" x1="307.1619" x2="94.1218" y1="32.2494" y2="245.2894" /><line stroke="black" x1="306.9815" x2="215.9769" y1="34.5511" y2="125.5556" /><line stroke="black" x1="164.2541" x2="161.0508" y1="177.2784" y2="180.4818" /><line stroke="black" x1="308.9472" x2="215.1872" y1="34.7067" y2="128.4667" /><line stroke="black" x1="172.2281" x2="95.7307" y1="171.4258" y2="247.9232" /><line stroke="black" x1="309.6114" x2="221.0341" y1="36.1639" y2="124.7411" /><line stroke="black" x1="167.7752" x2="164.4325" y1="178.0" y2="181.3427" /><line stroke="black" x1="312.715" x2="96.3438" y1="35.1815" y2="251.5528" /><line stroke="black" x1="172.8232" x2="168.4067" y1="177.1947" y2="181.6111" /><line stroke="black" x1="312.3144" x2="241.6101" y1="37.7035" y2="108.4078" /><line stroke="black" x1="239.8596" x2="226.2644" y1="110.1583" y2="123.7535" /><line stroke="black" x1="179.9507" x2="99.2316" y1="172.1885" y2="252.9076" /><line stroke="black" x1="315.1468" x2="225.1202" y1="36.9924" y2="127.019" /><line stroke="black" x1="315.4045" x2="232.9101" y1="38.856" y2="121.3504" /><line stroke="black" x1="176.9322" x2="172.5498" y1="177.3283" y2="181.7107" /><line stroke="black" x1="318.2239" x2="98.3182" y1="38.1579" y2="258.0636" /><line stroke="black" x1="318.3611" x2="255.6149" y1="40.142" y2="102.8882" /><line stroke="black" x1="181.5413" x2="175.8822" y1="176.9618" y2="182.621" /><line stroke="black" x1="246.356" x2="239.4983" y1="112.1472" y2="119.0049" /><line stroke="black" x1="255.0037" x2="253.6051" y1="103.4994" y2="104.898" /><line stroke="black" x1="152.7066" x2="151.703" y1="205.7965" y2="206.8001" /><line stroke="black" x1="321.434" x2="236.9203" y1="39.1904" y2="123.7042" /><line stroke="black" x1="188.0134" x2="174.5014" y1="172.611" y2="186.123" /><line stroke="black" x1="163.2397" x2="99.5204" y1="197.3847" y2="261.1041" /><line stroke="black" x1="321.5649" x2="272.2458" y1="41.1809" y2="90.5" /><line stroke="black" x1="183.9578" x2="179.9124" y1="178.7879" y2="182.8333" /><line stroke="black" x1="264.0901" x2="263.2064" y1="98.6557" y2="99.5393" /><line stroke="black" x1="159.6512" x2="150.808" y1="203.0946" y2="211.9378" /><line stroke="black" x1="324.2475" x2="98.7089" y1="40.6196" y2="266.1582" /><line stroke="black" x1="323.7633" x2="277.7884" y1="43.2251" y2="89.2" /><line stroke="black" x1="165.9634" x2="153.1271" y1="201.025" y2="213.8613" /><line stroke="black" x1="187.4884" x2="184.081" y1="179.5" y2="182.9074" /><line stroke="black" x1="268.9342" x2="262.5508" y1="100.1756" y2="106.5589" /><line stroke="black" x1="194.3192" x2="181.9784" y1="174.7905" y2="187.1313" /><line stroke="black" x1="253.0" x2="251.776" y1="116.1097" y2="117.3337" /><line stroke="black" x1="171.1137" x2="101.4104" y1="197.996" y2="267.6994" /><line stroke="black" x1="325.7945" x2="270.304" y1="43.3153" y2="98.8057" /><line stroke="black" x1="325.924" x2="282.4502" y1="45.3071" y2="88.7809" /><line stroke="black" x1="190.7043" x2="187.7311" y1="180.5267" y2="183.5" /><line stroke="black" x1="171.8981" x2="165.5972" y1="199.3329" y2="205.6339" /><line stroke="black" x1="160.0319" x2="155.9508" y1="211.1991" y2="215.2803" /><line stroke="black" x1="162.607" x2="162.1003" y1="208.6241" y2="209.1307" /><line stroke="black" x1="329.1488" x2="100.3221" y1="44.2036" y2="273.0303" /><line stroke="black" x1="329.0848" x2="287.9723" y1="46.3889" y2="87.5014" /><line stroke="black" x1="176.4789" x2="168.5087" y1="198.9948" y2="206.965" /><line stroke="black" x1="330.9516" x2="284.7205" y1="46.6435" y2="92.8745" /><line stroke="black" x1="180.6093" x2="150.6456" y1="196.9857" y2="226.9494" /><line stroke="black" x1="199.5254" x2="188.1065" y1="178.0697" y2="189.4885" /><line stroke="black" x1="144.9339" x2="101.3756" y1="232.6611" y2="276.2194" /><line stroke="black" x1="267.843" x2="263.7658" y1="109.752" y2="113.8292" /><line stroke="black" x1="181.1381" x2="177.3688" y1="198.5782" y2="202.3475" /><line stroke="black" x1="331.6535" x2="294.5507" y1="48.0628" y2="85.1656" /><line stroke="black" x1="175.3577" x2="170.6514" y1="204.3586" y2="209.0649" /><line stroke="black" x1="334.7095" x2="102.1704" y1="47.1282" y2="279.6672" /><line stroke="black" x1="334.305" x2="298.012" y1="49.654" y2="85.947" /><line stroke="black" x1="185.9334" x2="182.8647" y1="198.0256" y2="201.0943" /><line stroke="black" x1="177.9875" x2="172.6581" y1="205.9714" y2="211.3009" /><line stroke="black" x1="179.8757" x2="178.6515" y1="204.0832" y2="205.3074" /><line stroke="black" x1="144.9732" x2="104.1587" y1="241.1071" y2="281.9216" /><line stroke="black" x1="181.5297" x2="171.8869" y1="204.5506" y2="214.1934" /><line stroke="black" x1="190.4631" x2="184.0619" y1="195.6172" y2="202.0184" /><line stroke="black" x1="336.2068" x2="292.2402" y1="49.8735" y2="93.8401" /><line stroke="black" x1="170.8601" x2="159.0714" y1="215.2202" y2="227.0089" /><line stroke="black" x1="203.9568" x2="193.6021" y1="182.1235" y2="192.4782" /><line stroke="black" x1="189.077" x2="188.3296" y1="199.1247" y2="199.872" /><line stroke="black" x1="336.4154" x2="300.2815" y1="51.7863" y2="87.9201" /><line stroke="black" x1="182.1802" x2="176.2593" y1="206.0215" y2="211.9423" /><line stroke="black" x1="186.195" x2="185.8543" y1="202.0066" y2="202.3474" /><line stroke="black" x1="338.8927" x2="105.5911" y1="51.4302" y2="284.7318" /><line stroke="black" x1="185.3314" x2="180.3526" y1="207.1128" y2="212.0917" /><line stroke="black" x1="338.566" x2="302.8448" y1="53.8783" y2="89.5994" /><line stroke="black" x1="208.2828" x2="191.7762" y1="186.2828" y2="202.7894" /><line stroke="black" x1="168.9745" x2="166.5656" y1="225.5911" y2="228.0" /><line stroke="black" x1="145.8552" x2="109.2398" y1="248.7104" y2="285.3258" /><line stroke="black" x1="188.1225" x2="179.6978" y1="206.4431" y2="214.8678" /><line stroke="black" x1="178.0264" x2="175.157" y1="216.5392" y2="219.4086" /><line stroke="black" x1="340.438" x2="297.2514" y1="54.1276" y2="97.3142" /><line stroke="black" x1="340.8113" x2="305.572" y1="55.8756" y2="91.1149" /><line stroke="black" x1="189.612" x2="108.5138" y1="209.1963" y2="290.2944" /><line stroke="black" x1="344.225" x2="191.5334" y1="54.5832" y2="207.2748" /><line stroke="black" x1="343.7631" x2="307.6825" y1="57.1664" y2="93.247" /><line stroke="black" x1="212.5254" x2="196.0446" y1="190.5254" y2="207.0062" /><line stroke="black" x1="346.1515" x2="302.0407" y1="56.8994" y2="101.0102" /><line stroke="black" x1="146.2754" x2="110.8237" y1="256.7754" y2="292.2272" /><line stroke="black" x1="177.0678" x2="174.8557" y1="225.983" y2="228.1952" /><line stroke="black" x1="346.9296" x2="309.21" y1="58.2426" y2="95.9622" /><line stroke="black" x1="278.7932" x2="110.3601" y1="128.5003" y2="296.9334" /><line stroke="black" x1="349.3741" x2="281.235" y1="57.9194" y2="126.0585" /><line stroke="black" x1="349.1152" x2="311.6837" y1="60.2996" y2="97.7311" /><line stroke="black" x1="216.512" x2="197.83" y1="195.0241" y2="213.7062" /><line stroke="black" x1="350.9197" x2="308.1638" y1="60.6164" y2="103.3723" /><line stroke="black" x1="147.0" x2="112.077" y1="264.5361" y2="299.4592" /><line stroke="black" x1="351.159" x2="314.6395" y1="62.4985" y2="99.018" /><line stroke="black" x1="21.6501" x2="14.1329" y1="394.1287" y2="401.6458" /><line stroke="black" x1="275.5" x2="112.2987" y1="140.2788" y2="303.4801" /><line stroke="black" x1="353.6477" x2="278.2788" y1="62.1311" y2="137.5" /><line stroke="black" x1="23.1771" x2="22.2886" y1="392.6017" y2="393.4901" /><line stroke="black" x1="352.8745" x2="318.092" y1="65.0256" y2="99.8081" /><line stroke="black" x1="28.3392" x2="15.9815" y1="391.6822" y2="404.0399" /><line stroke="black" x1="146.6667" x2="113.5867" y1="273.3548" y2="306.4347" /><line stroke="black" x1="219.1738" x2="206.115" y1="200.8476" y2="213.9064" /><line stroke="black" x1="354.2544" x2="315.1357" y1="65.7671" y2="104.8857" /><line stroke="black" x1="354.4278" x2="337.0177" y1="67.715" y2="85.1251" /><line stroke="black" x1="334.2779" x2="322.3119" y1="87.8648" y2="99.8309" /><line stroke="black" x1="22.9236" x2="22.5" y1="399.2192" y2="399.6427" /><line stroke="black" x1="356.8806" x2="112.3721" y1="67.3834" y2="311.892" /><line stroke="black" x1="37.8652" x2="16.4684" y1="386.3989" y2="407.7957" /><line stroke="black" x1="27.4254" x2="26.0788" y1="398.9599" y2="400.3066" /><line stroke="black" x1="356.5792" x2="338.5" y1="69.8062" y2="87.8854" /><line stroke="black" x1="337.7448" x2="324.7911" y1="88.6406" y2="101.5943" /><line stroke="black" x1="147.0" x2="113.4509" y1="281.5067" y2="315.0558" /><line stroke="black" x1="358.1203" x2="316.4343" y1="70.3865" y2="112.0724" /><line stroke="black" x1="42.8045" x2="19.0489" y1="385.7022" y2="409.4578" /><line stroke="black" x1="221.7867" x2="209.104" y1="206.72" y2="219.4027" /><line stroke="black" x1="33.6371" x2="30.128" y1="396.9909" y2="400.5" /><line stroke="black" x1="37.8757" x2="37.0594" y1="392.7523" y2="393.5687" /><line stroke="black" x1="357.6729" x2="326.1051" y1="72.9552" y2="104.5229" /><line stroke="black" x1="53.9986" x2="18.6181" y1="378.7507" y2="414.1313" /><line stroke="black" x1="360.1944" x2="110.1961" y1="72.5549" y2="322.5533" /><line stroke="black" x1="48.6233" x2="44.8552" y1="386.2474" y2="390.0154" /><line stroke="black" x1="359.045" x2="327.7889" y1="75.8256" y2="107.0818" /><line stroke="black" x1="38.8847" x2="35.5088" y1="395.986" y2="399.3618" /><line stroke="black" x1="112.5351" x2="112.4056" y1="322.3356" y2="322.4651" /><line stroke="black" x1="44.1518" x2="43.397" y1="390.7189" y2="391.4737" /><line stroke="black" x1="59.5172" x2="21.1077" y1="377.4748" y2="415.8842" /><line stroke="black" x1="147.4274" x2="109.0875" y1="289.5646" y2="327.9045" /><line stroke="black" x1="222.6693" x2="212.2735" y1="214.3227" y2="224.7185" /><line stroke="black" x1="360.6589" x2="323.712" y1="76.3331" y2="113.28" /><line stroke="black" x1="360.9115" x2="329.6327" y1="78.2018" y2="109.4806" /><line stroke="black" x1="44.3443" x2="37.9102" y1="394.769" y2="401.2031" /><line stroke="black" x1="111.1888" x2="110.4329" y1="327.9245" y2="328.6804" /><line stroke="black" x1="29.6133" x2="27.6133" y1="409.5" y2="411.5" /><line stroke="black" x1="112.5232" x2="112.0511" y1="326.5901" y2="327.0622" /><line stroke="black" x1="58.9479" x2="46.603" y1="380.1654" y2="392.5104" /><line stroke="black" x1="68.7168" x2="21.9429" y1="372.5178" y2="419.2918" /><line stroke="black" x1="362.8531" x2="108.2127" y1="78.3815" y2="333.0219" /><line stroke="black" x1="113.1929" x2="110.856" y1="330.163" y2="332.5" /><line stroke="black" x1="361.0888" x2="330.9963" y1="82.2671" y2="112.3596" /><line stroke="black" x1="65.5939" x2="43.4832" y1="377.7621" y2="399.8728" /><line stroke="black" x1="42.5939" x2="36.5315" y1="400.7621" y2="406.8244" /><line stroke="black" x1="116.354" x2="100.6042" y1="329.1233" y2="344.8731" /><line stroke="black" x1="147.5" x2="118.1139" y1="297.9773" y2="327.3634" /><line stroke="black" x1="98.0025" x2="93.1958" y1="347.4747" y2="352.2815" /><line stroke="black" x1="222.238" x2="210.2614" y1="223.2392" y2="235.2159" /><line stroke="black" x1="362.887" x2="326.9008" y1="82.5902" y2="118.5764" /><line stroke="black" x1="72.2397" x2="23.7284" y1="373.2376" y2="421.7489" /><line stroke="black" x1="336.1601" x2="332.0989" y1="111.4385" y2="115.4997" /><line stroke="black" x1="362.7967" x2="338.4384" y1="84.8019" y2="109.1602" /><line stroke="black" x1="70.5084" x2="42.0901" y1="377.0902" y2="405.5085" /><line stroke="black" x1="364.8461" x2="24.25" y1="84.8738" y2="425.4699" /><line stroke="black" x1="104.3412" x2="102.7668" y1="347.5" y2="349.0745" /><line stroke="black" x1="117.8899" x2="116.8963" y1="333.9513" y2="334.945" /><line stroke="black" x1="337.4759" x2="332.8472" y1="114.3653" y2="118.994" /><line stroke="black" x1="340.7451" x2="340.1422" y1="111.0961" y2="111.6991" /><line stroke="black" x1="100.4817" x2="94.1582" y1="351.3595" y2="357.683" /><line stroke="black" x1="79.6339" x2="79.4864" y1="372.2073" y2="372.3548" /><line stroke="black" x1="92.7811" x2="87.5292" y1="359.0601" y2="364.312" /><line stroke="black" x1="77.5725" x2="43.5" y1="374.2687" y2="408.3412" /><line stroke="black" x1="108.7049" x2="106.4068" y1="343.1363" y2="345.4345" /><line stroke="black" x1="364.174" x2="342.8327" y1="87.6673" y2="109.0086" /><line stroke="black" x1="366.0302" x2="329.8847" y1="87.9323" y2="124.0778" /><line stroke="black" x1="148.1925" x2="25.9615" y1="305.77" y2="428.001" /><line stroke="black" x1="260.7325" x2="259.5" y1="193.2301" y2="194.4626" /><line stroke="black" x1="221.6791" x2="201.0936" y1="232.2834" y2="252.8689" /><line stroke="black" x1="338.2667" x2="333.5829" y1="117.8171" y2="122.501" /><line stroke="black" x1="120.0469" x2="44.3927" y1="336.037" y2="411.6912" /><line stroke="black" x1="364.7604" x2="342.812" y1="91.3235" y2="113.2719" /><line stroke="black" x1="366.8279" x2="26.4456" y1="91.3773" y2="431.7596" /><line stroke="black" x1="364.776" x2="342.6341" y1="95.5505" y2="117.6924" /><line stroke="black" x1="59.5569" x2="45.5168" y1="400.7696" y2="414.8097" /><line stroke="black" x1="338.2504" x2="334.6307" y1="122.0761" y2="125.6958" /><line stroke="black" x1="121.3125" x2="59.7703" y1="339.014" y2="400.5562" /><line stroke="black" x1="164.0" x2="160.3157" y1="298.4478" y2="302.1321" /><line stroke="black" x1="366.0834" x2="332.0286" y1="96.3644" y2="130.4192" /><line stroke="black" x1="149.5746" x2="29.0705" y1="312.8732" y2="433.3773" /><line stroke="black" x1="278.4794" x2="256.1397" y1="183.9684" y2="206.3081" /><line stroke="black" x1="221.25" x2="186.8507" y1="241.1978" y2="275.5971" /><line stroke="black" x1="340.3401" x2="335.3906" y1="124.2291" y2="129.1785" /><line stroke="black" x1="364.9068" x2="342.9625" y1="99.6624" y2="121.6067" /><line stroke="black" x1="122.0203" x2="61.4937" y1="342.5488" y2="403.0754" /><line stroke="black" x1="59.5047" x2="48.4188" y1="405.0644" y2="416.1504" /><line stroke="black" x1="366.8522" x2="29.7126" y1="99.8383" y2="436.9779" /><line stroke="black" x1="54.1667" x2="50.1219" y1="414.6451" y2="418.6899" /><line stroke="black" x1="364.8937" x2="336.8355" y1="103.9181" y2="131.9763" /><line stroke="black" x1="60.0294" x2="59.3482" y1="408.7824" y2="409.4636" /><line stroke="black" x1="119.1892" x2="63.0" y1="349.6226" y2="405.8118" /><line stroke="black" x1="123.6239" x2="122.3298" y1="345.1879" y2="346.482" /><line stroke="black" x1="280.3118" x2="277.8841" y1="188.5" y2="190.9277" /><line stroke="black" x1="151.663" x2="31.16" y1="319.2701" y2="439.7731" /><line stroke="black" x1="219.3556" x2="206.1862" y1="251.5775" y2="264.7469" /><line stroke="black" x1="366.1154" x2="333.7416" y1="104.8177" y2="137.1915" /><line stroke="black" x1="287.8813" x2="260.3183" y1="183.0519" y2="210.6149" /><line stroke="black" x1="201.2717" x2="186.4206" y1="269.6614" y2="284.5125" /><line stroke="black" x1="172.5552" x2="165.0268" y1="298.3779" y2="305.9064" /><line stroke="black" x1="117.0526" x2="63.5" y1="356.0019" y2="409.5544" /><line stroke="black" x1="364.8068" x2="341.6861" y1="108.2476" y2="131.3683" /><line stroke="black" x1="51.1754" x2="48.5" y1="421.879" y2="424.5544" /><line stroke="black" x1="283.8168" x2="282.251" y1="189.2376" y2="190.8034" /><line stroke="black" x1="339.5" x2="339.0629" y1="133.5544" y2="133.9915" /><line stroke="black" x1="366.8308" x2="31.9395" y1="108.3449" y2="443.2362" /><line stroke="black" x1="49.7" x2="48.5021" y1="427.5971" y2="428.795" /><line stroke="black" x1="67.6103" x2="61.5769" y1="409.6868" y2="415.7202" /><line stroke="black" x1="364.7261" x2="343.3416" y1="112.571" y2="133.9555" /><line stroke="black" x1="116.756" x2="72.7971" y1="360.5411" y2="404.5" /><line stroke="black" x1="125.4845" x2="124.0712" y1="351.8126" y2="353.2259" /><line stroke="black" x1="366.0486" x2="336.4351" y1="113.3698" y2="142.9833" /><line stroke="black" x1="276.0068" x2="260.8709" y1="203.4116" y2="218.5475" /><line stroke="black" x1="153.7296" x2="33.7914" y1="325.6888" y2="445.627" /><line stroke="black" x1="218.5091" x2="165.5663" y1="260.9093" y2="313.8521" /><line stroke="black" x1="297.1105" x2="285.3846" y1="182.3079" y2="194.0338" /><line stroke="black" x1="116.9826" x2="74.8859" y1="364.5571" y2="406.6538" /><line stroke="black" x1="364.7996" x2="343.8555" y1="116.7401" y2="137.6842" /><line stroke="black" x1="67.5" x2="64.5" y1="414.0397" y2="417.0397" /><line stroke="black" x1="175.133" x2="172.7482" y1="306.4067" y2="308.7915" /><line stroke="black" x1="126.4984" x2="121.5697" y1="355.0413" y2="359.97" /><line stroke="black" x1="366.8368" x2="34.3563" y1="116.8243" y2="449.3047" /><line stroke="black" x1="279.4199" x2="275.4155" y1="206.3624" y2="210.3669" /><line stroke="black" x1="178.5443" x2="175.18" y1="307.2381" y2="310.6024" /><line stroke="black" x1="65.7187" x2="63.3688" y1="420.0637" y2="422.4136" /><line stroke="black" x1="115.7794" x2="74.5" y1="370.003" y2="411.2824" /><line stroke="black" x1="126.905" x2="121.5553" y1="358.8774" y2="364.227" /><line stroke="black" x1="366.1374" x2="344.7857" y1="119.6449" y2="140.9966" /><line stroke="black" x1="337.2349" x2="337.2202" y1="150.6688" y2="150.6835" /><line stroke="black" x1="117.99" x2="37.0241" y1="369.9136" y2="450.8796" /><line stroke="black" x1="368.0257" x2="342.5043" y1="119.878" y2="145.3994" /><line stroke="black" x1="155.9759" x2="120.1858" y1="331.9278" y2="367.7179" /><line stroke="black" x1="304.4343" x2="294.2732" y1="183.4693" y2="193.6305" /><line stroke="black" x1="218.0482" x2="172.9562" y1="269.8555" y2="314.9475" /><line stroke="black" x1="332.6346" x2="327.2852" y1="155.2691" y2="160.6185" /><line stroke="black" x1="268.2924" x2="267.3519" y1="219.6113" y2="220.5518" /><line stroke="black" x1="282.9401" x2="274.3401" y1="204.9636" y2="213.5636" /><line stroke="black" x1="278.6121" x2="276.071" y1="211.4129" y2="213.954" /><line stroke="black" x1="115.2961" x2="74.5" y1="374.7289" y2="415.525" /><line stroke="black" x1="124.4191" x2="123.7867" y1="365.6059" y2="366.2383" /><line stroke="black" x1="283.1552" x2="279.9926" y1="206.8698" y2="210.0324" /><line stroke="black" x1="366.7979" x2="346.1876" y1="123.2271" y2="143.8374" /><line stroke="black" x1="182.1759" x2="177.7432" y1="307.8491" y2="312.2818" /><line stroke="black" x1="210.1589" x2="208.9004" y1="279.8661" y2="281.1246" /><line stroke="black" x1="368.8265" x2="36.3797" y1="123.3199" y2="455.7666" /><line stroke="black" x1="213.003" x2="212.4619" y1="281.2646" y2="281.8057" /><line stroke="black" x1="186.6245" x2="180.4032" y1="307.6432" y2="313.8645" /><line stroke="black" x1="75.5" x2="72.5" y1="418.7676" y2="421.7676" /><line stroke="black" x1="281.0857" x2="277.3652" y1="213.182" y2="216.9025" /><line stroke="black" x1="125.0303" x2="124.1585" y1="369.2374" y2="370.1091" /><line stroke="black" x1="366.6858" x2="347.0525" y1="127.5818" y2="147.2151" /><line stroke="black" x1="115.3284" x2="77.4874" y1="378.9392" y2="416.7803" /><line stroke="black" x1="286.659" x2="283.0104" y1="207.6086" y2="211.2572" /><line stroke="black" x1="334.6151" x2="330.0794" y1="161.7739" y2="166.3096" /><line stroke="black" x1="289.3739" x2="285.9262" y1="207.0151" y2="210.4627" /><line stroke="black" x1="117.7153" x2="39.3833" y1="378.6736" y2="457.0057" /><line stroke="black" x1="158.2963" x2="121.2937" y1="338.0926" y2="375.0953" /><line stroke="black" x1="285.4006" x2="277.082" y1="210.9884" y2="219.307" /><line stroke="black" x1="368.0343" x2="344.9798" y1="128.3546" y2="151.4091" /><line stroke="black" x1="312.9946" x2="302.3767" y1="183.3944" y2="194.0123" /><line stroke="black" x1="219.5482" x2="178.8839" y1="276.8407" y2="317.5051" /><line stroke="black" x1="189.8208" x2="187.9002" y1="308.6895" y2="310.6101" /><line stroke="black" x1="185.5" x2="182.7618" y1="313.0103" y2="315.7484" /><line stroke="black" x1="289.7121" x2="288.4881" y1="208.7982" y2="210.0222" /><line stroke="black" x1="216.3779" x2="213.9647" y1="282.1324" y2="284.5456" /><line stroke="black" x1="75.9016" x2="75.0103" y1="422.6087" y2="423.5" /><line stroke="black" x1="366.9996" x2="348.369" y1="131.5107" y2="150.1412" /><line stroke="black" x1="285.3044" x2="279.6537" y1="213.2058" y2="218.8566" /><line stroke="black" x1="116.3457" x2="78.5" y1="382.1646" y2="420.0103" /><line stroke="black" x1="126.9016" x2="123.0205" y1="371.6087" y2="375.4898" /><line stroke="black" x1="368.8722" x2="39.726" y1="131.7594" y2="460.9056" /><line stroke="black" x1="292.8101" x2="283.4393" y1="209.9428" y2="219.3136" /><line stroke="black" x1="117.3588" x2="77.5" y1="385.3941" y2="425.2529" /><line stroke="black" x1="128.2934" x2="122.7266" y1="374.4595" y2="380.0264" /><line stroke="black" x1="367.7135" x2="349.2988" y1="135.0394" y2="153.4541" /><line stroke="black" x1="193.2529" x2="191.915" y1="309.5" y2="310.8379" /><line stroke="black" x1="185.8727" x2="185.7777" y1="316.8802" y2="316.9753" /><line stroke="black" x1="200.8748" x2="182.479" y1="303.9994" y2="322.3952" /><line stroke="black" x1="223.2201" x2="203.1557" y1="281.6541" y2="301.7186" /><line stroke="black" x1="278.9947" x2="277.8548" y1="225.8796" y2="227.0194" /><line stroke="black" x1="295.5743" x2="283.2144" y1="209.2999" y2="221.6599" /><line stroke="black" x1="161.3747" x2="41.5522" y1="343.4996" y2="463.3221" /><line stroke="black" x1="318.7553" x2="308.7773" y1="186.1189" y2="196.0969" /><line stroke="black" x1="332.2495" x2="331.0" y1="172.6247" y2="173.8742" /><line stroke="black" x1="336.9581" x2="334.1557" y1="167.9162" y2="170.7186" /><line stroke="black" x1="341.0828" x2="339.3129" y1="163.7914" y2="165.5614" /><line stroke="black" x1="369.6146" x2="346.161" y1="135.2597" y2="158.7133" /><line stroke="black" x1="368.8287" x2="349.1418" y1="138.1668" y2="157.8538" /><line stroke="black" x1="295.9248" x2="287.5121" y1="211.0708" y2="219.4835" /><line stroke="black" x1="128.6468" x2="123.6315" y1="378.3488" y2="383.364" /><line stroke="black" x1="117.4219" x2="80.4956" y1="389.5737" y2="426.5" /><line stroke="black" x1="197.0862" x2="195.3052" y1="309.9093" y2="311.6903" /><line stroke="black" x1="370.8509" x2="42.2672" y1="138.266" y2="466.8497" /><line stroke="black" x1="116.88" x2="83.4727" y1="394.3582" y2="427.7655" /><line stroke="black" x1="298.925" x2="297.0456" y1="212.3132" y2="214.1926" /><line stroke="black" x1="128.8747" x2="128.4727" y1="382.3635" y2="382.7655" /><line stroke="black" x1="369.0333" x2="348.6262" y1="142.2049" y2="162.612" /><line stroke="black" x1="217.8202" x2="215.6854" y1="295.5393" y2="297.6741" /><line stroke="black" x1="324.2003" x2="311.4925" y1="189.1592" y2="201.867" /><line stroke="black" x1="229.2119" x2="219.8282" y1="284.1477" y2="293.5313" /><line stroke="black" x1="163.8933" x2="124.3481" y1="349.4663" y2="389.0114" /><line stroke="black" x1="370.822" x2="332.5717" y1="142.5375" y2="180.7878" /><line stroke="black" x1="194.6855" x2="184.0899" y1="318.674" y2="329.2696" /><line stroke="black" x1="301.7427" x2="296.7405" y1="211.6168" y2="216.6191" /><line stroke="black" x1="208.6071" x2="196.5663" y1="304.7524" y2="316.7932" /><line stroke="black" x1="118.4593" x2="43.7683" y1="394.9002" y2="469.5913" /><line stroke="black" x1="204.4054" x2="203.4794" y1="311.0754" y2="312.0014" /><line stroke="black" x1="302.042" x2="299.3051" y1="213.4388" y2="216.1758" /><line stroke="black" x1="117.5628" x2="85.4991" y1="397.9181" y2="429.9817" /><line stroke="black" x1="152.0659" x2="151.0762" y1="363.415" y2="364.4046" /><line stroke="black" x1="368.8489" x2="348.7752" y1="146.632" y2="166.7056" /><line stroke="black" x1="370.8464" x2="44.409" y1="146.7558" y2="473.1931" /><line stroke="black" x1="88.5" x2="85.7153" y1="431.2235" y2="434.0082" /><line stroke="black" x1="368.8276" x2="344.403" y1="150.8959" y2="175.3205" /><line stroke="black" x1="154.9546" x2="152.9529" y1="364.7689" y2="366.7706" /><line stroke="black" x1="304.5707" x2="300.7928" y1="215.1528" y2="218.9306" /><line stroke="black" x1="118.7158" x2="90.2235" y1="401.0077" y2="429.5" /><line stroke="black" x1="326.9567" x2="311.5595" y1="194.8882" y2="210.2853" /><line stroke="black" x1="120.2438" x2="47.1123" y1="401.601" y2="474.7325" /><line stroke="black" x1="239.6503" x2="222.2644" y1="282.1945" y2="299.5804" /><line stroke="black" x1="168.1023" x2="125.4417" y1="353.7425" y2="396.4031" /><line stroke="black" x1="215.4406" x2="205.2065" y1="306.4042" y2="316.6383" /><line stroke="black" x1="200.7879" x2="186.769" y1="321.0569" y2="335.0758" /><line stroke="black" x1="308.619" x2="298.3403" y1="213.2258" y2="223.5045" /><line stroke="black" x1="370.0864" x2="333.8356" y1="151.7584" y2="188.0092" /><line stroke="black" x1="119.8341" x2="92.5" y1="404.132" y2="431.4661" /><line stroke="black" x1="366.9915" x2="344.005" y1="156.9746" y2="179.9612" /><line stroke="black" x1="307.3593" x2="303.1949" y1="216.6068" y2="220.7712" /><line stroke="black" x1="132.0965" x2="127.1289" y1="391.8696" y2="396.8372" /><line stroke="black" x1="368.8803" x2="47.4118" y1="157.2071" y2="478.6756" /><line stroke="black" x1="133.963" x2="127.6171" y1="394.2457" y2="400.5917" /><line stroke="black" x1="309.374" x2="304.8452" y1="218.8348" y2="223.3636" /><line stroke="black" x1="121.5962" x2="92.5" y1="406.6126" y2="435.7088" /><line stroke="black" x1="366.9156" x2="344.1207" y1="161.2932" y2="184.088" /><line stroke="black" x1="323.7294" x2="322.3301" y1="206.6007" y2="208.0" /><line stroke="black" x1="222.2888" x2="213.4576" y1="308.0413" y2="316.8724" /><line stroke="black" x1="170.5291" x2="49.037" y1="359.801" y2="481.2931" /><line stroke="black" x1="368.113" x2="334.8173" y1="162.217" y2="195.5128" /><line stroke="black" x1="252.0726" x2="241.7795" y1="278.2575" y2="288.5506" /><line stroke="black" x1="206.9709" x2="190.3738" y1="323.3592" y2="339.9563" /><line stroke="black" x1="236.8875" x2="230.8325" y1="293.4426" y2="299.4976" /><line stroke="black" x1="313.4372" x2="300.8519" y1="216.8928" y2="229.4782" /><line stroke="black" x1="50.6383" x2="49.5817" y1="481.8131" y2="482.8697" /><line stroke="black" x1="122.6111" x2="93.1667" y1="409.8403" y2="439.2847" /><line stroke="black" x1="134.1528" x2="129.1332" y1="398.2986" y2="403.3182" /><line stroke="black" x1="364.8267" x2="344.9943" y1="167.6247" y2="187.4571" /><line stroke="black" x1="309.9837" x2="308.6496" y1="222.4677" y2="223.8018" /><line stroke="black" x1="339.413" x2="337.9401" y1="193.0384" y2="194.5113" /><line stroke="black" x1="366.8403" x2="49.5221" y1="167.7324" y2="485.0506" /><line stroke="black" x1="255.1535" x2="254.5517" y1="281.5406" y2="282.1423" /><line stroke="black" x1="53.066" x2="51.3617" y1="483.628" y2="485.3323" /><line stroke="black" x1="123.5" x2="93.9374" y1="413.194" y2="442.7567" /><line stroke="black" x1="364.8457" x2="345.3994" y1="171.8483" y2="191.2947" /><line stroke="black" x1="159.7265" x2="158.8333" y1="376.9675" y2="377.8607" /><line stroke="black" x1="340.5279" x2="338.1866" y1="196.1661" y2="198.5074" /><line stroke="black" x1="230.0846" x2="222.6247" y1="308.7308" y2="316.1907" /><line stroke="black" x1="316.3323" x2="304.3867" y1="222.4831" y2="234.4287" /><line stroke="black" x1="213.0844" x2="212.9967" y1="325.7309" y2="325.8187" /><line stroke="black" x1="136.0278" x2="131.0288" y1="402.7876" y2="407.7865" /><line stroke="black" x1="260.0375" x2="252.976" y1="278.7779" y2="285.8393" /><line stroke="black" x1="124.6679" x2="51.1935" y1="414.1474" y2="487.6219" /><line stroke="black" x1="173.8044" x2="138.794" y1="365.011" y2="400.0214" /><line stroke="black" x1="366.0885" x2="335.5131" y1="172.7269" y2="203.3023" /><line stroke="black" x1="210.0744" x2="194.8945" y1="328.741" y2="343.9209" /><line stroke="black" x1="55.7032" x2="52.7308" y1="485.2335" y2="488.2059" /><line stroke="black" x1="107.5" x2="93.1813" y1="433.4367" y2="447.7553" /><line stroke="black" x1="123.7765" x2="113.3203" y1="417.1602" y2="427.6164" /><line stroke="black" x1="111.9453" x2="110.4367" y1="428.9914" y2="430.5" /><line stroke="black" x1="364.8755" x2="338.3225" y1="176.0612" y2="202.6142" /><line stroke="black" x1="366.8484" x2="52.1345" y1="176.2096" y2="490.9235" /><line stroke="black" x1="58.2148" x2="53.5511" y1="486.9646" y2="491.6283" /><line stroke="black" x1="125.219" x2="113.9432" y1="419.9603" y2="431.2361" /><line stroke="black" x1="106.5" x2="92.0" y1="438.6793" y2="453.1793" /><line stroke="black" x1="162.0655" x2="161.4196" y1="383.1138" y2="383.7597" /><line stroke="black" x1="362.8599" x2="338.7778" y1="182.3195" y2="206.4015" /><line stroke="black" x1="210.2878" x2="208.1336" y1="337.0129" y2="339.167" /><line stroke="black" x1="127.1371" x2="53.5147" y1="420.1636" y2="493.7859" /><line stroke="black" x1="205.5629" x2="200.7631" y1="341.7377" y2="346.5376" /><line stroke="black" x1="176.2276" x2="142.278" y1="371.0731" y2="405.0226" /><line stroke="black" x1="364.0868" x2="335.8601" y1="183.2139" y2="211.4405" /><line stroke="black" x1="138.2696" x2="133.1959" y1="409.031" y2="414.1047" /><line stroke="black" x1="237.1607" x2="230.4654" y1="310.14" y2="316.8352" /><line stroke="black" x1="274.0615" x2="272.5622" y1="273.2392" y2="274.7384" /><line stroke="black" x1="104.5" x2="93.0645" y1="444.922" y2="456.3574" /><line stroke="black" x1="126.2102" x2="115.5645" y1="423.2118" y2="433.8574" /><line stroke="black" x1="137.8435" x2="135.7912" y1="411.5785" y2="413.6308" /><line stroke="black" x1="362.8406" x2="339.1192" y1="186.5814" y2="210.3027" /><line stroke="black" x1="60.8535" x2="55.093" y1="488.5685" y2="494.329" /><line stroke="black" x1="364.8411" x2="225.8093" y1="186.7022" y2="325.734" /><line stroke="black" x1="223.7362" x2="55.5433" y1="327.8071" y2="496.0" /><line stroke="black" x1="63.2582" x2="57.6646" y1="490.4064" y2="496.0" /><line stroke="black" x1="128.2956" x2="117.8158" y1="425.369" y2="435.8489" /><line stroke="black" x1="360.8793" x2="339.8618" y1="192.7853" y2="213.8029" /><line stroke="black" x1="104.5" x2="94.5942" y1="449.1646" y2="459.0704" /><line stroke="black" x1="140.1206" x2="135.2927" y1="413.544" y2="418.3719" /><line stroke="black" x1="132.1756" x2="59.7859" y1="423.6103" y2="496.0" /><line stroke="black" x1="211.547" x2="206.4716" y1="344.239" y2="349.3144" /><line stroke="black" x1="362.0992" x2="337.4968" y1="193.6867" y2="218.2892" /><line stroke="black" x1="244.0573" x2="238.743" y1="311.7286" y2="317.043" /><line stroke="black" x1="180.0596" x2="132.7111" y1="375.7263" y2="423.0748" /><line stroke="black" x1="141.2641" x2="136.4138" y1="416.6431" y2="421.4935" /><line stroke="black" x1="66.1552" x2="61.9073" y1="491.752" y2="496.0" /><line stroke="black" x1="96.5" x2="95.5" y1="461.4073" y2="462.4073" /><line stroke="black" x1="105.5" x2="102.4073" y1="452.4073" y2="455.5" /><line stroke="black" x1="130.3234" x2="120.3072" y1="427.5838" y2="437.6001" /><line stroke="black" x1="360.8214" x2="340.9656" y1="197.0858" y2="216.9416" /><line stroke="black" x1="362.8482" x2="236.4426" y1="197.1804" y2="323.586" /><line stroke="black" x1="232.2241" x2="64.0286" y1="327.8044" y2="496.0" /><line stroke="black" x1="141.2418" x2="137.741" y1="420.908" y2="424.4089" /><line stroke="black" x1="131.6873" x2="123.1499" y1="430.4626" y2="439.0" /><line stroke="black" x1="68.9617" x2="66.1499" y1="493.1882" y2="496.0" /><line stroke="black" x1="358.9498" x2="342.4927" y1="203.2001" y2="219.6572" /><line stroke="black" x1="253.3771" x2="246.3677" y1="310.8941" y2="317.9035" /><line stroke="black" x1="217.9245" x2="212.617" y1="346.3467" y2="351.6542" /><line stroke="black" x1="143.6311" x2="136.8812" y1="420.6402" y2="427.3901" /><line stroke="black" x1="133.8284" x2="68.2712" y1="430.4428" y2="496.0" /><line stroke="black" x1="180.223" x2="145.1171" y1="384.0483" y2="419.1541" /><line stroke="black" x1="360.107" x2="338.2065" y1="204.1642" y2="226.0647" /><line stroke="black" x1="132.6602" x2="127.5498" y1="433.7323" y2="438.8427" /><line stroke="black" x1="358.95" x2="343.7056" y1="207.4425" y2="222.6869" /><line stroke="black" x1="148.9535" x2="148.4556" y1="417.4391" y2="417.9369" /><line stroke="black" x1="360.8621" x2="72.5139" y1="207.6518" y2="496.0" /><line stroke="black" x1="150.4212" x2="150.3678" y1="420.2139" y2="420.2674" /><line stroke="black" x1="131.9463" x2="127.9177" y1="438.6889" y2="442.7174" /><line stroke="black" x1="358.8858" x2="344.1214" y1="211.7493" y2="226.5137" /><line stroke="black" x1="261.6808" x2="255.1399" y1="311.0756" y2="317.6166" /><line stroke="black" x1="185.6204" x2="149.7549" y1="387.1361" y2="423.0016" /><line stroke="black" x1="360.1121" x2="337.8571" y1="212.6444" y2="234.8993" /><line stroke="black" x1="134.8584" x2="76.7565" y1="437.8981" y2="496.0" /><line stroke="black" x1="226.2078" x2="220.6924" y1="346.5487" y2="352.0641" /><line stroke="black" x1="144.6244" x2="139.9068" y1="428.1321" y2="432.8497" /><line stroke="black" x1="151.9418" x2="151.4326" y1="422.936" y2="423.4452" /><line stroke="black" x1="354.9702" x2="344.7662" y1="219.9076" y2="230.1116" /><line stroke="black" x1="358.7188" x2="80.9991" y1="218.2803" y2="496.0" /><line stroke="black" x1="133.3733" x2="133.1148" y1="445.7471" y2="446.0056" /><line stroke="black" x1="145.6853" x2="142.0832" y1="433.4351" y2="437.0373" /><line stroke="black" x1="153.2489" x2="153.0834" y1="425.8716" y2="426.0371" /><line stroke="black" x1="288.7673" x2="286.7398" y1="292.4744" y2="294.502" /><line stroke="black" x1="189.7042" x2="152.5827" y1="391.5376" y2="428.6591" /><line stroke="black" x1="269.8854" x2="262.1497" y1="311.3563" y2="319.092" /><line stroke="black" x1="233.4103" x2="227.9319" y1="347.8315" y2="353.3098" /><line stroke="black" x1="357.1318" x2="337.3825" y1="224.1099" y2="243.8592" /><line stroke="black" x1="253.8014" x2="250.281" y1="327.4404" y2="330.9608" /><line stroke="black" x1="137.8238" x2="85.2418" y1="443.4179" y2="496.0" /><line stroke="black" x1="148.1968" x2="140.7074" y1="433.045" y2="440.5343" /><line stroke="black" x1="134.9884" x2="133.9691" y1="448.3747" y2="449.394" /><line stroke="black" x1="154.5852" x2="154.0113" y1="428.7779" y2="429.3518" /><line stroke="black" x1="147.1222" x2="142.8463" y1="436.2409" y2="440.5168" /><line stroke="black" x1="358.5429" x2="89.4844" y1="226.9416" y2="496.0" /><line stroke="black" x1="156.092" x2="154.9088" y1="431.5137" y2="432.6969" /><line stroke="black" x1="272.187" x2="268.7463" y1="315.4188" y2="318.8594" /><line stroke="black" x1="147.9068" x2="143.5588" y1="439.699" y2="444.0469" /><line stroke="black" x1="138.2969" x2="134.2292" y1="449.3088" y2="453.3765" /><line stroke="black" x1="194.9259" x2="152.8405" y1="394.8012" y2="436.8865" /><line stroke="black" x1="149.8927" x2="93.7271" y1="439.8343" y2="496.0" /><line stroke="black" x1="352.828" x2="337.5714" y1="236.8991" y2="252.1556" /><line stroke="black" x1="293.26" x2="289.9797" y1="296.4671" y2="299.7474" /><line stroke="black" x1="280.4023" x2="256.2726" y1="309.3247" y2="333.4544" /><line stroke="black" x1="357.7814" x2="355.7498" y1="231.9456" y2="233.9772" /><line stroke="black" x1="139.4051" x2="135.5278" y1="452.4433" y2="456.3205" /><line stroke="black" x1="157.6491" x2="156.5505" y1="434.1993" y2="435.2979" /><line stroke="black" x1="276.8499" x2="271.4245" y1="314.9985" y2="320.4239" /><line stroke="black" x1="358.8334" x2="97.9697" y1="235.1362" y2="496.0" /><line stroke="black" x1="158.8775" x2="158.0241" y1="437.2135" y2="438.067" /><line stroke="black" x1="139.604" x2="136.68" y1="456.487" y2="459.411" /><line stroke="black" x1="353.8497" x2="350.6894" y1="244.3626" y2="247.523" /><line stroke="black" x1="296.6096" x2="293.2333" y1="301.6027" y2="304.979" /><line stroke="black" x1="163.4078" x2="157.7388" y1="434.8045" y2="440.4736" /><line stroke="black" x1="198.9448" x2="168.7123" y1="399.2675" y2="429.5" /><line stroke="black" x1="141.4085" x2="102.2123" y1="456.8039" y2="496.0" /><line stroke="black" x1="286.0102" x2="279.4526" y1="312.2022" y2="318.7597" /><line stroke="black" x1="150.3779" x2="146.5695" y1="447.8345" y2="451.6428" /><line stroke="black" x1="160.008" x2="159.9839" y1="440.3256" y2="440.3498" /><line stroke="black" x1="153.4314" x2="106.455" y1="449.0236" y2="496.0" /><line stroke="black" x1="348.7652" x2="157.3033" y1="253.6898" y2="445.1517" /><line stroke="black" x1="205.1989" x2="175.7024" y1="401.4987" y2="430.9953" /><line stroke="black" x1="153.3686" x2="147.8402" y1="453.329" y2="458.8574" /><line stroke="black" x1="288.799" x2="287.6561" y1="317.8986" y2="319.0415" /><line stroke="black" x1="297.8793" x2="295.1232" y1="308.8183" y2="311.5744" /><line stroke="black" x1="343.5394" x2="340.647" y1="263.1582" y2="266.0506" /><line stroke="black" x1="143.6094" x2="110.6976" y1="463.0882" y2="496.0" /><line stroke="black" x1="165.2285" x2="160.9399" y1="441.4691" y2="445.7578" /><line stroke="black" x1="152.7782" x2="149.5814" y1="456.0407" y2="459.2376" /><line stroke="black" x1="342.7621" x2="114.9403" y1="268.1782" y2="496.0" /><line stroke="black" x1="153.5641" x2="150.2027" y1="459.4975" y2="462.8589" /><line stroke="black" x1="143.9291" x2="141.1879" y1="469.1324" y2="471.8736" /><line stroke="black" x1="167.8869" x2="163.9653" y1="447.296" y2="451.2176" /><line stroke="black" x1="155.9868" x2="119.1829" y1="459.1961" y2="496.0" /><line stroke="black" x1="209.8414" x2="180.5" y1="405.3414" y2="434.6829" /><line stroke="black" x1="152.1554" x2="151.554" y1="465.1488" y2="465.7502" /><line stroke="black" x1="145.5107" x2="141.7694" y1="471.7935" y2="475.5349" /><line stroke="black" x1="340.6337" x2="123.4255" y1="278.7918" y2="496.0" /><line stroke="black" x1="145.9934" x2="142.7652" y1="475.5535" y2="478.7817" /><line stroke="black" x1="147.574" x2="127.6682" y1="476.0941" y2="496.0" /><line stroke="black" x1="170.1492" x2="166.1342" y1="453.5189" y2="457.534" /><line stroke="black" x1="338.9277" x2="338.8552" y1="284.7405" y2="284.813" /><line stroke="black" x1="154.8713" x2="153.2226" y1="468.7968" y2="470.4456" /><line stroke="black" x1="216.5161" x2="186.6876" y1="407.1521" y2="436.9805" /><line stroke="black" x1="159.7173" x2="131.9108" y1="468.1935" y2="496.0" /><line stroke="black" x1="338.3793" x2="165.5654" y1="289.5315" y2="462.3454" /><line stroke="black" x1="173.0239" x2="169.406" y1="459.1295" y2="462.7474" /><line stroke="black" x1="149.2538" x2="136.1535" y1="482.8997" y2="496.0" /><line stroke="black" x1="157.559" x2="155.7086" y1="474.5945" y2="476.4448" /><line stroke="black" x1="221.1417" x2="190.4526" y1="411.0118" y2="441.7008" /><line stroke="black" x1="217.7748" x2="216.7748" y1="416.5" y2="417.5" /><line stroke="black" x1="336.5283" x2="168.9261" y1="299.8678" y2="467.47" /><line stroke="black" x1="338.4677" x2="337.9037" y1="297.9284" y2="298.4924" /><line stroke="black" x1="162.869" x2="140.3961" y1="473.5271" y2="496.0" /><line stroke="black" x1="222.0075" x2="220.6841" y1="416.51" y2="417.8333" /><line stroke="black" x1="162.2022" x2="154.597" y1="478.4365" y2="486.0417" /><line stroke="black" x1="231.4258" x2="195.1243" y1="409.2129" y2="445.5144" /><line stroke="black" x1="147.084" x2="144.6387" y1="493.5548" y2="496.0" /><line stroke="black" x1="175.9231" x2="172.2003" y1="464.7156" y2="468.4385" /><line stroke="black" x1="153.0417" x2="148.595" y1="487.597" y2="492.0438" /><line stroke="black" x1="152.3549" x2="148.4283" y1="490.4052" y2="494.3317" /><line stroke="black" x1="225.7601" x2="224.8003" y1="417.0" y2="417.9598" /><line stroke="black" x1="160.975" x2="157.5276" y1="481.785" y2="485.2324" /><line stroke="black" x1="334.4463" x2="148.8814" y1="310.4351" y2="496.0" /><line stroke="black" x1="156.1971" x2="151.0027" y1="490.8056" y2="496.0" /><line stroke="black" x1="160.0012" x2="158.5759" y1="487.0015" y2="488.4268" /><line stroke="black" x1="230.8192" x2="229.0027" y1="416.1835" y2="418.0" /><line stroke="black" x1="238.2915" x2="199.6656" y1="410.8326" y2="449.4585" /><line stroke="black" x1="163.7038" x2="153.124" y1="485.4202" y2="496.0" /><line stroke="black" x1="324.0" x2="322.86" y1="325.124" y2="326.264" /><line stroke="black" x1="178.8807" x2="174.4329" y1="470.2433" y2="474.6911" /><line stroke="black" x1="234.0312" x2="232.7453" y1="417.2141" y2="418.5" /><line stroke="black" x1="163.0986" x2="155.2453" y1="488.1468" y2="496.0" /><line stroke="black" x1="328.5433" x2="171.7163" y1="324.8234" y2="481.6503" /><line stroke="black" x1="167.1162" x2="157.3667" y1="486.2505" y2="496.0" /><line stroke="black" x1="167.1021" x2="159.488" y1="488.3859" y2="496.0" /><line stroke="black" x1="240.1484" x2="237.6712" y1="415.3396" y2="417.8168" /><line stroke="black" x1="180.8641" x2="176.6409" y1="476.7453" y2="480.9684" /><line stroke="black" x1="295.419" x2="293.3698" y1="362.1903" y2="364.2395" /><line stroke="black" x1="246.7733" x2="229.2045" y1="410.836" y2="428.4048" /><line stroke="black" x1="169.015" x2="161.6093" y1="488.5943" y2="496.0" /><line stroke="black" x1="222.5" x2="212.1122" y1="435.1093" y2="445.4971" /><line stroke="black" x1="170.444" x2="163.7306" y1="489.2867" y2="496.0" /><line stroke="black" x1="326.495" x2="176.5852" y1="335.3569" y2="485.2667" /><line stroke="black" x1="173.199" x2="165.8519" y1="488.653" y2="496.0" /><line stroke="black" x1="172.9871" x2="167.9733" y1="490.9862" y2="496.0" /><line stroke="black" x1="318.4585" x2="307.3581" y1="347.6361" y2="358.7365" /><line stroke="black" x1="288.8209" x2="287.8378" y1="377.2736" y2="378.2568" /><line stroke="black" x1="304.0022" x2="289.5039" y1="362.0924" y2="376.5907" /><line stroke="black" x1="261.623" x2="240.5056" y1="404.4716" y2="425.589" /><line stroke="black" x1="219.6937" x2="217.5946" y1="446.4008" y2="448.5" /><line stroke="black" x1="183.046" x2="180.6508" y1="483.0486" y2="485.4437" /><line stroke="black" x1="174.6437" x2="170.0946" y1="491.4508" y2="496.0" /><line stroke="black" x1="174.5319" x2="173.7592" y1="493.684" y2="494.4567" /><line stroke="black" x1="318.831" x2="174.3372" y1="351.5063" y2="496.0" /><line stroke="black" x1="320.4357" x2="319.818" y1="349.9015" y2="350.5192" /><line stroke="black" x1="311.8488" x2="303.0799" y1="362.7311" y2="371.5" /><line stroke="black" x1="185.1667" x2="183.5804" y1="489.4132" y2="490.9995" /><line stroke="black" x1="294.3783" x2="254.1604" y1="380.2015" y2="420.4195" /><line stroke="black" x1="301.7946" x2="298.5819" y1="372.7853" y2="375.998" /><line stroke="black" x1="312.8304" x2="182.8225" y1="365.9922" y2="496.0" /><line stroke="black" x1="312.5436" x2="306.7937" y1="370.5216" y2="376.2714" /><line stroke="black" x1="314.7347" x2="191.3078" y1="372.5731" y2="496.0" /><line stroke="black" x1="315.6333" x2="301.4973" y1="375.9171" y2="390.0531" /><line stroke="black" x1="304.4268" x2="303.0409" y1="389.245" y2="390.6308" /><line stroke="black" x1="308.5878" x2="307.0049" y1="385.0839" y2="386.6669" /><line stroke="black" x1="318.5593" x2="199.7931" y1="377.2337" y2="496.0" /><line stroke="black" x1="304.063" x2="302.3443" y1="393.8514" y2="395.5701" /><line stroke="black" x1="318.7996" x2="308.8609" y1="381.2362" y2="391.1748" /><line stroke="black" x1="305.4636" x2="298.391" y1="394.5722" y2="401.6447" /><line stroke="black" x1="303.9817" x2="300.9954" y1="398.1753" y2="401.1616" /><line stroke="black" x1="321.917" x2="208.2784" y1="382.3613" y2="496.0" /><line stroke="black" x1="304.1853" x2="299.4556" y1="402.2144" y2="406.9441" /><line stroke="black" x1="305.8947" x2="294.5986" y1="402.6263" y2="413.9224" /><line stroke="black" x1="323.3569" x2="311.6617" y1="385.1641" y2="396.8593" /><line stroke="black" x1="303.9922" x2="297.2439" y1="406.6501" y2="413.3984" /><line stroke="black" x1="327.0193" x2="216.7636" y1="385.7443" y2="496.0" /><line stroke="black" x1="302.6845" x2="294.9018" y1="412.2005" y2="419.9832" /><line stroke="black" x1="328.36" x2="309.2492" y1="388.6463" y2="407.7571" /><line stroke="black" x1="303.7154" x2="289.0637" y1="413.2909" y2="427.9426" /><line stroke="black" x1="299.5568" x2="292.2848" y1="419.5708" y2="426.8428" /><line stroke="black" x1="333.0432" x2="308.8038" y1="388.2057" y2="412.4452" /><line stroke="black" x1="305.414" x2="225.2489" y1="415.8349" y2="496.0" /><line stroke="black" x1="297.9645" x2="289.9025" y1="425.4058" y2="433.4677" /><line stroke="black" x1="334.704" x2="312.1285" y1="390.7875" y2="413.3631" /><line stroke="black" x1="300.2696" x2="280.7204" y1="425.222" y2="444.7712" /><line stroke="black" x1="297.3685" x2="286.6402" y1="430.2444" y2="440.9727" /><line stroke="black" x1="339.5869" x2="233.7342" y1="390.1473" y2="496.0" /><line stroke="black" x1="295.5784" x2="283.4141" y1="436.2771" y2="448.4414" /><line stroke="black" x1="343.0812" x2="309.8714" y1="390.8957" y2="424.1054" /><line stroke="black" x1="296.3152" x2="269.3412" y1="437.6617" y2="464.6356" /><line stroke="black" x1="293.1793" x2="280.6545" y1="442.9189" y2="455.4437" /><line stroke="black" x1="346.816" x2="308.9108" y1="391.4035" y2="429.3087" /><line stroke="black" x1="301.8194" x2="242.2195" y1="436.4" y2="496.0" /><line stroke="black" x1="312.4076" x2="312.2138" y1="427.9332" y2="428.127" /><line stroke="black" x1="289.9143" x2="280.8408" y1="450.4265" y2="459.5" /><line stroke="black" x1="348.5775" x2="311.1142" y1="393.8846" y2="431.3479" /><line stroke="black" x1="294.3071" x2="261.9175" y1="448.155" y2="480.5446" /><line stroke="black" x1="286.875" x2="282.9005" y1="457.7084" y2="461.6829" /><line stroke="black" x1="275.4919" x2="275.2916" y1="469.0916" y2="469.2919" /><line stroke="black" x1="354.3764" x2="308.8738" y1="392.3284" y2="437.831" /><line stroke="black" x1="307.5621" x2="250.7048" y1="439.1427" y2="496.0" /><line stroke="black" x1="286.5691" x2="259.1706" y1="464.3783" y2="491.7768" /><line stroke="black" x1="357.4112" x2="309.8267" y1="393.5362" y2="441.1207" /><line stroke="black" x1="291.8992" x2="286.7462" y1="459.0482" y2="464.2012" /><line stroke="black" x1="312.2697" x2="311.1615" y1="440.799" y2="441.9073" /><line stroke="black" x1="294.454" x2="259.19" y1="460.7361" y2="496.0" /><line stroke="black" x1="297.6907" x2="295.2741" y1="457.4994" y2="459.9159" /><line stroke="black" x1="360.8448" x2="307.5102" y1="394.3453" y2="447.6799" /><line stroke="black" x1="312.4259" x2="311.1007" y1="444.8854" y2="446.2106" /><line stroke="black" x1="283.086" x2="263.4327" y1="476.3467" y2="496.0" /><line stroke="black" x1="291.5588" x2="288.3999" y1="467.8739" y2="471.0327" /><line stroke="black" x1="363.6232" x2="310.1611" y1="395.8095" y2="449.2715" /><line stroke="black" x1="312.7026" x2="311.4643" y1="448.8514" y2="450.0897" /><line stroke="black" x1="367.2872" x2="309.0362" y1="396.3882" y2="454.6391" /><line stroke="black" x1="304.0576" x2="267.6753" y1="459.6177" y2="496.0" /><line stroke="black" x1="312.8181" x2="311.6362" y1="452.9785" y2="454.1605" /><line stroke="black" x1="280.4754" x2="271.918" y1="487.4426" y2="496.0" /><line stroke="black" x1="288.8767" x2="286.7872" y1="479.0413" y2="481.1308" /><line stroke="black" x1="370.4594" x2="310.6701" y1="397.4586" y2="457.2479" /><line stroke="black" x1="313.0" x2="311.7119" y1="457.0393" y2="458.3274" /><line stroke="black" x1="373.8334" x2="305.3891" y1="398.3272" y2="466.7715" /><line stroke="black" x1="297.6313" x2="292.7537" y1="474.5293" y2="479.4069" /><line stroke="black" x1="290.48" x2="276.1606" y1="481.6806" y2="496.0" /><line stroke="black" x1="312.5764" x2="311.1214" y1="461.7055" y2="463.1605" /><line stroke="black" x1="377.039" x2="309.4201" y1="399.3643" y2="466.9832" /><line stroke="black" x1="296.5907" x2="293.5111" y1="479.8126" y2="482.8922" /><line stroke="black" x1="289.526" x2="285.0783" y1="486.8773" y2="491.3249" /><line stroke="black" x1="287.9171" x2="286.0965" y1="490.6075" y2="492.4281" /><line stroke="black" x1="312.1399" x2="311.1207" y1="466.3847" y2="467.4039" /><line stroke="black" x1="380.3109" x2="308.7219" y1="400.335" y2="471.924" /><line stroke="black" x1="300.6261" x2="284.6459" y1="480.0198" y2="496.0" /><line stroke="black" x1="312.1" x2="311.7606" y1="470.6672" y2="471.0066" /><line stroke="black" x1="381.6962" x2="310.2715" y1="403.1924" y2="474.6171" /><line stroke="black" x1="300.4346" x2="294.0625" y1="484.454" y2="490.826" /><line stroke="black" x1="303.6303" x2="295.1115" y1="483.3795" y2="491.8983" /><line stroke="black" x1="386.2809" x2="293.1312" y1="402.8502" y2="496.0" /><line stroke="black" x1="304.4586" x2="295.2525" y1="486.7938" y2="496.0" /><line stroke="black" x1="387.5555" x2="310.189" y1="405.8183" y2="483.1848" /><line stroke="black" x1="305.5219" x2="297.3738" y1="487.852" y2="496.0" /><line stroke="black" x1="301.9983" x2="299.4951" y1="493.4968" y2="496.0" /><line stroke="black" x1="392.5693" x2="301.6164" y1="405.0471" y2="496.0" /><line stroke="black" x1="304.0447" x2="303.7378" y1="495.6931" y2="496.0" /><line stroke="black" x1="391.9195" x2="311.4432" y1="409.9396" y2="490.4159" /><line stroke="black" x1="308.1409" x2="305.8591" y1="493.7182" y2="496.0" /><line stroke="black" x1="397.706" x2="310.1017" y1="408.3957" y2="496.0" /><line stroke="black" x1="398.2175" x2="314.3444" y1="412.1269" y2="496.0" /><line stroke="black" x1="404.7408" x2="318.587" y1="409.8463" y2="496.0" /><line stroke="black" x1="403.2898" x2="322.8297" y1="415.5398" y2="496.0" /><line stroke="black" x1="412.2927" x2="327.0723" y1="410.7796" y2="496.0" /><line stroke="black" x1="410.7003" x2="331.3149" y1="416.6147" y2="496.0" /><line stroke="black" x1="417.3577" x2="335.5576" y1="414.1998" y2="496.0" /><line stroke="black" x1="417.1749" x2="339.8002" y1="418.6253" y2="496.0" /><line stroke="black" x1="418.5622" x2="344.0429" y1="421.4806" y2="496.0" /><line stroke="black" x1="415.3936" x2="348.2855" y1="428.8919" y2="496.0" /><line stroke="black" x1="414.6808" x2="352.5281" y1="433.8474" y2="496.0" /><line stroke="black" x1="411.61" x2="356.7708" y1="441.1607" y2="496.0" /><line stroke="black" x1="410.6999" x2="361.0134" y1="446.3135" y2="496.0" /><line stroke="black" x1="407.5678" x2="365.2561" y1="453.6882" y2="496.0" /><line stroke="black" x1="406.7021" x2="369.4987" y1="458.7966" y2="496.0" /><line stroke="black" x1="403.5513" x2="373.7413" y1="466.19" y2="496.0" /><line stroke="black" x1="404.5799" x2="377.984" y1="469.404" y2="496.0" /><line stroke="black" x1="399.55" x2="382.2266" y1="478.6766" y2="496.0" /><line stroke="black" x1="398.8139" x2="386.4693" y1="483.6554" y2="496.0" /><line stroke="black" x1="397.5069" x2="396.3019" y1="489.205" y2="490.41" /><line stroke="black" x1="395.7484" x2="390.7119" y1="490.9635" y2="496.0" /><line stroke="black" x1="396.6584" x2="394.9545" y1="494.2961" y2="496.0" /></svg>